<svg version="1.2" xmlns="http://www.w3.org/2000/svg" viewBox="0 0 1080 1080" width="1080" height="1080">
	<defs>
		<linearGradient id="g1" x2="1" gradientUnits="userSpaceOnUse" gradientTransform="matrix(-3.521,-1081.22,1081.22,-3.521,233.688,1109.677)">
			<stop offset="0" stop-color="#389e51"/>
			<stop offset="1" stop-color="#3aa354"/>
		</linearGradient>
		<radialGradient id="g2" cx="0" cy="0" r="1" gradientUnits="userSpaceOnUse" gradientTransform="matrix(0,519.11,-519.11,0,540,540)">
			<stop offset=".737" stop-color="#389e51"/>
			<stop offset="1" stop-color="#ffffff" stop-opacity=".75"/>
		</radialGradient>
		<linearGradient id="g3" x2="1" gradientUnits="userSpaceOnUse" gradientTransform="matrix(0,468.602,-649.026,0,123.63,27.355)">
			<stop offset="0" stop-color="#ffffff" stop-opacity=".69"/>
			<stop offset="1" stop-color="#ffffff" stop-opacity="0"/>
		</linearGradient>
		<radialGradient id="g4" cx="0" cy="0" r="1" fx=".566" fy="0" gradientUnits="userSpaceOnUse" gradientTransform="matrix(0,247.793,-338.237,0,540,803.258)">
			<stop offset="0" stop-color="#ffffff" stop-opacity=".39"/>
			<stop offset="1" stop-color="#ffffff" stop-opacity="0"/>
		</radialGradient>
	</defs>
	<style>
		.s0 { fill: url(#g1) } 
		.s1 { fill: url(#g2) } 
		.s2 { fill: #d1ffdd;stroke: #d1ffdd;stroke-linecap: round;stroke-linejoin: round;stroke-width: 8 } 
		.s3 { fill: url(#g3) } 
		.s4 { fill: url(#g4) } 
	</style>
	<g id="Layer 1">
		<path id="back circle border" fill-rule="evenodd" class="s0" d="m540 1069.5c-292.81 0-529.5-236.69-529.5-529.5 0-292.81 236.69-529.5 529.5-529.5 292.81 0 529.5 236.69 529.5 529.5 0 292.81-236.69 529.5-529.5 529.5z"/>
		<path id="back circle inner" fill-rule="evenodd" class="s1" d="m540 1061.72c-288.51 0-521.72-233.21-521.72-521.72 0-288.51 233.21-521.72 521.72-521.72 288.51 0 521.72 233.21 521.72 521.72 0 288.51-233.21 521.72-521.72 521.72z"/>
	</g>
	<g id="Layer 2">
		<path id="Shape 2" fill-rule="evenodd" class="s2" d="m679.9 591.5c49.41 157.06-70.42 298.61-238.03 298.61-167.61 0-303.09-156.69-303.09-350.54 0-193.85 135.48-350.55 303.09-350.55 83.1 0 158.29 38.52 213 100.98 23.55 26.88 55.49 63.49 19.83 104.28-33.75 38.61-89.93-8.51-103.03-22.04-34.35-35.49-79.71-57.05-129.48-57.05-107.46 0-191.65 100.49-194.32 224.74-3.51 162.94 91.94 286.15 170.27 281.76 73.76-4.14 122-99.11 111.41-218.41"/>
		<path id="Shape 3" fill-rule="evenodd" class="s2" d="m733.25 511.78c0 0-4.99 229.3 99.53 264.64 68.01 23.01 107.55 26.33 107.55 26.33l-273.18 7.95c0 0-0.25-152.63-133.09-204.19-109.46-42.48-275.19-50.12-275.19-50.12-7.84 1.61 466.49-42.99 474.38-44.61z"/>
	</g>
	<g id="Layer 3">
		<path id="Shape 4" fill-rule="evenodd" class="s3" d="m540 540c-196.13 0-354.66-114.46-354.66-256.07 0-141.6 158.53-256.06 354.66-256.06 196.13 0 354.66 114.46 354.66 256.06 0 141.61-158.53 256.07-354.66 256.07z"/>
		<path id="Shape 4 copy" fill-rule="evenodd" class="s4" d="m540 1060.35c-196.13 0-354.66-114.46-354.66-256.07 0-141.6 158.53-256.06 354.66-256.06 196.13 0 354.66 114.46 354.66 256.06 0 141.61-158.53 256.07-354.66 256.07z"/>
	</g>
</svg>